<?xml version="1.0" standalone="no"?>
<!DOCTYPE svg PUBLIC "-//W3C//DTD SVG 20010904//EN"
 "http://www.w3.org/TR/2001/REC-SVG-20010904/DTD/svg10.dtd">
<svg version="1.0" xmlns="http://www.w3.org/2000/svg"
 width="640.000000pt" height="640.000000pt" viewBox="0 0 640.000000 640.000000"
 preserveAspectRatio="xMidYMid meet">
<metadata>
Created by potrace 1.11, written by Peter Selinger 2001-2013
</metadata>
<g transform="translate(0.000000,640.000000) scale(0.100000,-0.100000)"
fill="#000000" stroke="none">
<path d="M1204 4791 c-10 -2 -22 -8 -26 -15 -4 -6 -8 -718 -8 -1583 0 -1220 3
-1573 12 -1579 12 -8 928 -13 960 -6 24 6 30 29 12 47 -13 13 -75 15 -470 15
l-454 0 0 1530 0 1530 1970 0 1970 0 0 -1530 0 -1530 -444 0 c-255 0 -455 -4
-470 -9 -18 -7 -23 -15 -19 -30 3 -10 12 -21 21 -23 10 -2 228 -3 485 -3 397
1 470 3 478 16 5 8 9 660 9 1586 l0 1572 -23 7 c-22 7 -3965 13 -4003 5z"/>
<path d="M4595 4183 c-3 -10 -9 -286 -11 -613 -4 -537 -12 -1104 -16 -1138 -2
-15 -18 -1 -22 19 -1 8 -12 48 -24 89 -12 41 -29 98 -37 125 -8 28 -16 62 -19
77 -2 15 -7 31 -9 35 -3 5 -8 25 -11 46 -3 21 -11 47 -16 58 -6 10 -9 19 -6
19 3 0 0 15 -5 33 -10 33 -16 53 -23 85 -2 9 -15 58 -29 107 -14 50 -28 104
-32 120 -5 17 -10 35 -11 40 -2 6 -8 28 -13 50 -5 22 -23 92 -40 155 -17 63
-33 124 -35 135 -2 11 -9 40 -15 65 -5 25 -12 56 -15 70 -3 14 -8 36 -11 50
-3 14 -8 36 -11 50 -3 14 -10 45 -15 70 -6 25 -13 56 -15 70 -2 14 -7 36 -10
50 -3 14 -8 33 -10 43 -9 47 -87 75 -114 42 -10 -12 -12 -142 -10 -618 1 -331
3 -753 4 -937 1 -184 5 -340 8 -346 9 -14 42 -11 60 4 11 9 13 41 11 154 -7
266 -10 1579 -5 1573 3 -3 7 -13 8 -23 5 -41 16 -99 24 -127 5 -16 11 -41 14
-55 4 -25 44 -228 51 -263 2 -10 7 -27 10 -37 3 -10 8 -27 10 -37 2 -10 13
-53 25 -95 11 -43 23 -85 25 -95 2 -10 11 -43 20 -73 8 -30 17 -63 20 -73 2
-10 7 -27 10 -37 3 -10 8 -29 10 -41 3 -12 11 -43 19 -68 7 -25 18 -64 24 -86
6 -22 15 -51 19 -65 4 -14 8 -28 9 -32 1 -5 2 -9 4 -10 1 -2 3 -10 5 -18 1 -8
28 -107 59 -220 31 -113 56 -214 56 -225 0 -36 37 -85 64 -85 22 0 54 21 57
38 13 69 32 1901 21 1945 -3 10 -14 17 -27 17 -13 0 -26 -8 -30 -17z"/>
<path d="M1957 4164 c-78 -41 -118 -120 -152 -299 -20 -104 -27 -622 -12 -840
10 -142 16 -215 22 -256 6 -41 12 -82 19 -128 3 -17 10 -49 17 -73 6 -24 13
-53 15 -66 15 -78 80 -210 128 -258 91 -91 221 -81 286 22 55 87 72 146 99
334 10 66 7 615 -3 745 -3 39 -8 102 -11 140 -2 39 -7 81 -9 95 -3 14 -7 57
-11 95 -3 39 -8 81 -10 95 -2 14 -7 41 -9 60 -9 61 -36 153 -59 200 -48 99
-113 142 -217 146 -43 2 -75 -3 -93 -12z m135 -63 c88 -33 176 -249 193 -476
3 -33 7 -71 10 -85 25 -126 25 -759 0 -920 -3 -19 -7 -51 -9 -70 -3 -19 -9
-55 -16 -80 -6 -25 -13 -56 -16 -68 -2 -13 -14 -44 -26 -68 -80 -171 -216 -70
-287 213 -20 83 -49 247 -56 322 -3 25 -7 57 -9 70 -26 125 -24 779 2 854 5
12 8 29 7 37 -1 8 1 20 4 25 3 6 6 16 8 24 26 176 99 259 195 222z"/>
<path d="M2730 4150 c-12 -23 -13 -43 -5 -240 7 -198 15 -665 20 -1130 6 -522
7 -549 25 -560 23 -14 58 10 63 44 7 36 -2 434 -16 814 -2 39 1 43 33 59 103
48 200 180 246 333 23 80 25 95 30 211 3 84 -1 121 -16 178 -52 188 -159 293
-312 308 -51 5 -57 3 -68 -17z m172 -86 c96 -49 148 -165 154 -345 3 -94 0
-129 -16 -188 -21 -76 -52 -145 -76 -169 -8 -7 -14 -16 -14 -20 -1 -12 -85
-99 -108 -111 -18 -9 -23 -9 -27 1 -2 7 -7 103 -10 213 -3 110 -8 236 -10 280
-2 44 -6 146 -9 226 l-5 146 44 -8 c25 -5 59 -16 77 -25z"/>
<path d="M3450 4128 c-20 -19 -20 -32 -20 -948 l0 -930 23 -15 c18 -11 54 -15
153 -15 71 0 137 1 147 3 22 4 40 22 43 43 5 34 -18 41 -145 40 -67 -1 -126 1
-130 4 -4 3 -8 124 -9 270 -2 146 -4 343 -5 438 -2 113 1 172 8 173 5 0 45 2
88 3 57 1 80 5 87 16 27 43 2 58 -100 62 l-84 3 -1 365 c0 201 2 375 4 388 3
21 8 22 86 22 69 0 85 3 100 20 19 21 14 69 -8 71 -6 0 -58 2 -115 3 -88 2
-105 0 -122 -16z"/>
<path d="M3097 2185 c-1 -2 -29 -5 -62 -8 -74 -8 -90 -11 -151 -32 -176 -59
-289 -187 -249 -281 24 -59 72 -83 240 -125 209 -51 246 -76 225 -149 -45
-159 -321 -279 -562 -246 -63 9 -91 71 -113 246 -10 76 -23 100 -57 100 -40 0
-78 -28 -98 -72 -50 -112 56 -267 195 -286 17 -2 32 -8 33 -13 2 -5 8 -9 14
-9 5 0 22 -8 36 -19 34 -24 88 -36 97 -21 4 6 -6 13 -25 16 -17 4 -33 11 -36
15 -3 5 -11 6 -17 3 -7 -4 -9 -4 -6 0 3 3 53 8 110 10 57 3 118 7 134 11 219
43 356 149 380 292 17 102 -62 158 -265 188 -166 24 -240 80 -211 158 11 28
80 98 115 116 21 10 74 32 89 36 4 2 9 4 12 5 21 11 139 24 195 22 89 -3 167
-41 177 -87 2 -8 5 -23 7 -32 8 -39 -38 -87 -84 -89 -43 -2 -50 -4 -50 -14 0
-13 44 -13 91 1 70 21 96 64 90 146 -1 28 -42 69 -87 88 -30 12 -159 35 -167
30z m-742 -547 c3 -13 10 -45 15 -73 14 -66 13 -65 29 -105 8 -19 23 -47 33
-62 31 -45 -3 -36 -55 15 -53 51 -82 119 -74 177 8 63 41 93 52 48z"/>
<path d="M3799 1788 c-44 -22 -89 -57 -141 -111 -43 -44 -78 -83 -78 -88 0
-11 -84 -94 -139 -138 -59 -46 -132 -72 -162 -57 -50 24 -42 136 9 134 69 -3
221 85 254 145 44 84 -28 134 -128 88 -34 -16 -147 -118 -179 -163 -74 -103
-68 -202 14 -227 65 -19 130 5 234 86 l57 45 -2 -30 c-3 -41 25 -79 68 -91 51
-14 69 -4 174 96 l36 33 2 -37 c2 -27 11 -46 32 -65 25 -23 33 -26 61 -18 17
5 42 16 54 24 33 22 134 126 153 158 9 16 20 28 24 28 4 0 8 7 8 15 0 23 -13
18 -40 -18 -46 -60 -157 -166 -185 -177 -20 -7 -31 -7 -41 1 -30 25 -17 61 77
211 62 98 66 107 51 121 -9 8 -23 12 -29 10 -7 -3 -13 -1 -13 4 0 5 -9 19 -20
31 -29 31 -75 28 -151 -10z m156 -29 c5 -6 -121 -189 -139 -201 -6 -4 -7 -8
-3 -8 4 0 -24 -32 -63 -70 -39 -39 -75 -68 -80 -65 -5 3 -11 1 -15 -5 -20 -32
-68 6 -60 48 16 85 156 235 279 300 20 10 71 10 81 1z m-433 -43 c-6 -36 -75
-104 -134 -134 -53 -26 -98 -38 -98 -24 0 17 66 92 121 138 42 34 61 44 84 42
23 -2 29 -7 27 -22z"/>
</g>
</svg>
